<?xml version="1.0" standalone="no"?><!DOCTYPE svg PUBLIC "-//W3C//DTD SVG 1.1//EN" "http://www.w3.org/Graphics/SVG/1.1/DTD/svg11.dtd"><svg t="1534836247247" class="icon" style="" viewBox="0 0 1027 1024" version="1.1" xmlns="http://www.w3.org/2000/svg" p-id="1890" xmlns:xlink="http://www.w3.org/1999/xlink" width="200.5859375" height="200"><defs><style type="text/css"></style></defs><path d="M1017.6 403.2 1017.6 403.2 531.2 6.4C518.4 0 505.6 0 492.8 6.4L6.4 403.2c0 0-6.4 12.8-6.4 19.2C0 441.6 12.8 448 25.6 448c6.4 0 12.8-6.4 12.8-6.4l57.6-44.8 0 505.6c0 64 51.2 115.2 115.2 115.2l147.2 0 51.2 0 403.2 0c64 0 115.2-51.2 115.2-115.2L928 396.8 985.6 448c0 0 6.4 6.4 12.8 6.4 6.4 0 12.8 0 19.2-6.4l6.4-6.4C1030.4 422.4 1024 409.6 1017.6 403.2zM614.4 972.8 409.6 972.8l0-307.2c0-57.6 44.8-102.4 102.4-102.4 57.6 0 102.4 44.8 102.4 102.4L614.4 972.8zM876.8 915.2c0 32-25.6 57.6-57.6 57.6l-153.6 0 0-307.2C665.6 576 595.2 512 512 512 428.8 512 358.4 576 358.4 665.6l0 307.2L204.8 972.8c-32 0-57.6-25.6-57.6-57.6L147.2 358.4 512 57.6l364.8 300.8L876.8 915.2z" p-id="1891" fill="#2c2c2c"></path></svg>